<svg version="1.1" xmlns="http://www.w3.org/2000/svg" xmlns:xlink="http://www.w3.org/1999/xlink" width="693.5935" height="114.93683" viewBox="0,0,693.5935,114.93683"><defs><linearGradient x1="40.5212" y1="152.03001" x2="734.10708" y2="152.03001" gradientUnits="userSpaceOnUse" id="color-1"><stop offset="0.012" stop-color="#a7a9ac"/><stop offset="1" stop-color="#414042"/></linearGradient><linearGradient x1="66.53525" y1="152.02812" x2="708.08618" y2="152.02812" gradientUnits="userSpaceOnUse" id="color-2"><stop offset="0" stop-color="#d1d2d3"/><stop offset="1" stop-color="#a4a5a8"/></linearGradient></defs><g transform="translate(-40.51434,-94.56117)"><g data-paper-data="{&quot;isPaintingLayer&quot;:true}" fill-rule="nonzero" stroke="none" stroke-width="1" stroke-linecap="butt" stroke-linejoin="miter" stroke-miterlimit="10" stroke-dasharray="" stroke-dashoffset="0" style="mix-blend-mode: normal"><path d="M734.10784,191.40773c0,9.99012 -29.37451,18.09027 -65.58579,18.09027h-562.42955c-36.2189,0 -65.57816,-8.10226 -65.57816,-18.09027v-78.75839c0,-9.99012 29.35926,-18.08817 65.57816,-18.08817h562.42193c36.23415,0 65.58579,8.09805 65.58579,18.08817v78.75839z" fill="url(#color-1)"/><path d="M708.07932,112.64934v78.75629c0,6.01678 -17.73598,10.91093 -39.56488,10.91093h-562.42193c-21.80604,0 -39.55726,-4.89415 -39.55726,-10.91093v-78.75839c0,-6.01678 17.75123,-10.91093 39.55726,-10.91093h562.42193c21.8289,0 39.56488,4.89625 39.56488,10.91303z" fill="url(#color-2)"/><text transform="translate(223.73167,163.23821) scale(0.87918,0.87918)" font-size="40" xml:space="preserve" fill="#000000" fill-rule="nonzero" stroke="none" stroke-width="1" stroke-linecap="butt" stroke-linejoin="miter" stroke-miterlimit="10" stroke-dasharray="" stroke-dashoffset="0" font-family="Marker" font-weight="normal" text-anchor="start" style="mix-blend-mode: normal"><tspan x="0" dy="0">Help The Doge Stock Rise!!!</tspan></text></g></g></svg>